<?xml version="1.0" standalone="no"?><!DOCTYPE svg PUBLIC "-//W3C//DTD SVG 1.1//EN" "http://www.w3.org/Graphics/SVG/1.1/DTD/svg11.dtd"><svg t="1611319605818" class="icon" viewBox="0 0 1024 1024" version="1.1" xmlns="http://www.w3.org/2000/svg" p-id="4999" xmlns:xlink="http://www.w3.org/1999/xlink" width="200" height="200"><defs><style type="text/css"></style></defs><path d="M124.416 7.168C70.144 24.576 28.672 62.464 10.24 111.104 0.512 137.728 0 150.528 0 512c0 363.008 0.512 374.272 10.24 401.408 14.848 38.912 45.056 71.168 86.016 91.136l34.304 16.896h762.88l34.304-16.896c36.864-17.92 63.488-46.08 82.432-86.528l11.264-24.576V130.56l-11.264-24.576c-18.944-40.448-45.568-68.608-82.432-86.528L893.44 2.56 519.68 1.536c-299.008-1.024-377.856 0.512-395.264 5.632z m604.672 255.488c12.8 7.168 24.576 19.968 32.256 33.792 11.264 22.016 11.776 26.624 11.776 150.016 0 113.152-1.024 127.488-8.192 130.56-4.608 1.536-12.288 1.024-16.896-2.048-7.168-4.608-8.704-22.528-10.752-133.12-2.56-139.776-3.072-140.288-34.304-153.6-24.576-9.728-363.008-9.728-387.584 0.512C281.088 303.104 281.6 299.008 281.6 512c0 169.472 1.024 193.536 8.192 204.288 13.824 19.456 37.888 26.112 93.184 26.112 53.248 0 67.584 5.632 60.416 23.552-2.56 6.656-12.8 7.68-73.216 6.144-81.408-1.536-94.72-7.168-113.664-47.104-10.752-22.016-11.264-27.648-9.728-219.136l1.536-196.608 13.312-20.992c25.088-37.376 23.04-37.376 247.808-37.376 197.12 0 199.68 0.512 219.648 11.776zM665.6 363.52c14.848 23.04-3.072 30.72-69.12 29.184-36.864-1.024-50.176-3.072-53.76-8.704-6.144-9.216-6.144-11.264-1.024-18.432 6.144-9.216 16.384-10.752 69.12-10.24 38.4 0.512 51.2 2.048 54.784 8.192zM387.072 396.8c10.752 20.992 21.504 38.4 23.04 38.4 1.536 0 10.752-16.896 20.48-37.376 13.312-27.648 20.48-37.376 29.184-38.4 19.456-3.072 19.456 12.8-0.512 53.248-10.752 20.992-18.944 38.912-18.944 40.448 0 1.024 8.192 2.56 18.432 3.584 22.528 2.048 33.28 14.336 23.04 26.624-4.608 5.632-15.36 8.192-31.744 8.192-21.504 0-25.088 1.536-25.088 10.24 0 8.192 4.096 9.728 29.696 11.264 27.136 1.536 29.184 2.56 29.184 14.336 0 11.776-2.048 12.8-29.184 14.336l-29.696 1.536v19.456c0 21.504-9.216 33.28-22.016 28.16-8.192-3.072-15.36-25.6-12.8-38.4 1.024-5.12-6.144-7.68-26.624-9.728-26.112-2.56-28.16-3.584-28.16-15.36 0-11.776 2.048-12.8 28.16-15.36 20.992-2.048 28.672-4.608 29.696-11.264 1.536-7.168-3.072-8.704-28.16-10.24-27.136-1.536-29.696-2.56-31.232-13.824-2.048-14.848 6.144-20.992 28.672-20.992h16.384l-20.992-41.472C335.872 370.176 335.36 358.4 354.816 358.4c9.728 0 15.872 7.168 32.256 38.4z m279.04 61.952c4.608 5.632 5.12 10.24 1.024 16.384-7.68 12.8-118.272 12.8-125.952 0-4.096-6.144-3.584-10.752 1.024-16.384 5.632-6.656 17.92-8.192 61.952-8.192s56.32 1.536 61.952 8.192z m0 92.16c4.608 5.632 5.12 10.24 1.024 16.384-7.68 12.8-118.272 12.8-125.952 0-4.096-6.144-3.584-10.752 1.024-16.384 5.632-6.656 17.92-8.192 61.952-8.192s56.32 1.536 61.952 8.192z m101.376 75.776c3.584 4.608 5.632 19.968 4.608 39.424-1.024 24.064-3.584 33.28-10.752 37.376-7.68 4.608-11.264 3.584-17.92-4.608-8.192-10.24-8.704-9.728-37.888 24.064-16.896 18.944-33.28 34.816-37.376 34.816-4.096 0-25.6-14.848-48.128-32.768l-40.96-32.768-36.352 40.448c-36.352 40.448-49.664 47.104-61.44 32.768-7.68-9.216-5.632-12.288 48.64-70.656 22.528-24.576 43.52-44.544 47.104-44.544 3.072 0 23.552 13.824 44.544 30.72 21.504 16.896 40.96 30.72 43.52 30.72 2.56 0 14.848-12.288 28.16-27.648 22.016-25.6 23.04-28.16 12.8-29.696-15.872-2.048-23.552-16.384-15.36-26.624 9.216-10.752 68.096-11.776 76.8-1.024z" p-id="5000"></path></svg>