<?xml version="1.0" standalone="no"?><!DOCTYPE svg PUBLIC "-//W3C//DTD SVG 1.1//EN" "http://www.w3.org/Graphics/SVG/1.1/DTD/svg11.dtd"><svg t="1610689262976" class="icon" viewBox="0 0 1024 1024" version="1.1" xmlns="http://www.w3.org/2000/svg" p-id="3424" xmlns:xlink="http://www.w3.org/1999/xlink" width="200" height="200"><defs><style type="text/css"></style></defs><path d="M153.6 102.4h614.4v307.2h102.4V102.4a102.4 102.4 0 0 0-102.4-102.4H153.6a102.4 102.4 0 0 0-102.4 102.4v716.8a102.4 102.4 0 0 0 102.4 102.4h307.2v-102.4H153.6z" p-id="3425"></path><path d="M256 307.2h409.6a51.2 51.2 0 0 0 0-102.4H256a51.2 51.2 0 0 0 0 102.4zM256 512h307.2a51.2 51.2 0 0 0 0-102.4H256a51.2 51.2 0 0 0 0 102.4zM460.8 614.4H256a51.2 51.2 0 0 0 0 102.4h204.8a51.2 51.2 0 0 0 0-102.4zM921.6 921.6h-307.2a51.2 51.2 0 0 0 0 102.4h307.2a51.2 51.2 0 0 0 0-102.4zM819.2 651.264A102.4 102.4 0 0 0 870.4 563.2a102.4 102.4 0 0 0-204.8 0 102.4 102.4 0 0 0 51.2 88.064V716.8h-76.8a76.8 76.8 0 0 0 0 153.6h256a76.8 76.8 0 0 0 0-153.6H819.2z" p-id="3426"></path></svg>