<?xml version="1.0" standalone="no"?><!DOCTYPE svg PUBLIC "-//W3C//DTD SVG 1.1//EN" "http://www.w3.org/Graphics/SVG/1.1/DTD/svg11.dtd"><svg t="1610689221526" class="icon" viewBox="0 0 1024 1024" version="1.1" xmlns="http://www.w3.org/2000/svg" p-id="1889" xmlns:xlink="http://www.w3.org/1999/xlink" width="200" height="200"><defs><style type="text/css"></style></defs><path d="M324.608 358.4h512a25.6 25.6 0 0 0 0-51.2h-512a25.6 25.6 0 1 0 0 51.2zM836.608 476.16h-512a25.6 25.6 0 1 0 0 51.2h512a25.6 25.6 0 1 0 0-51.2zM836.608 644.608h-512a25.6 25.6 0 1 0 0 51.2h512a25.6 25.6 0 0 0 0-51.2zM212.992 307.2h-25.6a25.6 25.6 0 0 0 0 51.2h25.6a25.6 25.6 0 1 0 0-51.2zM212.992 476.16h-25.6a25.6 25.6 0 1 0 0 51.2h25.6a25.6 25.6 0 1 0 0-51.2zM212.992 644.608h-25.6a25.6 25.6 0 0 0 0 51.2h25.6a25.6 25.6 0 1 0 0-51.2z" fill="" p-id="1890"></path></svg>