<?xml version="1.0" standalone="no"?><!DOCTYPE svg PUBLIC "-//W3C//DTD SVG 1.1//EN" "http://www.w3.org/Graphics/SVG/1.1/DTD/svg11.dtd"><svg t="1610625773283" class="icon" viewBox="0 0 1037 1024" version="1.1" xmlns="http://www.w3.org/2000/svg" p-id="1139" xmlns:xlink="http://www.w3.org/1999/xlink" width="202.5390625" height="200"><defs><style type="text/css"></style></defs><path d="M921.6 0 147.2 0C96 0 51.2 44.8 51.2 102.4l0 230.4 0 0c0 44.8 19.2 76.8 44.8 108.8L96 896c0 70.4 57.6 128 128 128l640 0c70.4 0 128-57.6 128-128L992 435.2c25.6-25.6 38.4-64 44.8-102.4l0 0L1036.8 102.4C1024 44.8 979.2 0 921.6 0zM857.6 972.8l-640 0c-38.4 0-76.8-32-76.8-76.8L140.8 480C166.4 486.4 192 492.8 217.6 492.8c76.8 0 140.8-51.2 160-115.2 19.2 64 83.2 115.2 160 115.2 76.8 0 140.8-51.2 160-115.2 19.2 64 83.2 115.2 160 115.2 25.6 0 51.2-6.4 76.8-19.2L934.4 896C928 940.8 896 972.8 857.6 972.8z" p-id="1140"></path></svg>